<svg width="10" height="10" viewBox="0 0 10 10" fill="none" xmlns="http://www.w3.org/2000/svg">
<g clip-path="url(#clip0_2_389)">
<path d="M7.27274 0.909089C7.39212 0.789706 7.53385 0.695006 7.68984 0.630396C7.84582 0.565786 8.013 0.532532 8.18183 0.532532C8.35067 0.532532 8.51785 0.565786 8.67383 0.630396C8.82981 0.695006 8.97154 0.789706 9.09092 0.909089C9.21031 1.02847 9.30501 1.1702 9.36962 1.32618C9.43423 1.48217 9.46748 1.64935 9.46748 1.81818C9.46748 1.98701 9.43423 2.15419 9.36962 2.31018C9.30501 2.46616 9.21031 2.60789 9.09092 2.72727L2.95456 8.86363L0.454559 9.54545L1.13638 7.04545L7.27274 0.909089Z" stroke="#68707D" stroke-linecap="round" stroke-linejoin="round"/>
</g>
<defs>
<clipPath id="clip0_2_389">
<rect width="10" height="10" fill="white"/>
</clipPath>
</defs>
</svg>
